<svg width="538" height="337" viewBox="0 0 538 337" fill="none" xmlns="http://www.w3.org/2000/svg">
<path d="M4.1139 254.987L1 257.832M4.1139 274.427L1 277.272M4.1139 293.867L1 296.712M4.1139 313.308L1 316.153M4.1139 332.748L1 335.593M25.3922 254.987L22.2783 257.832M25.3922 274.427L22.2783 277.272M25.3922 293.867L22.2783 296.712M25.3922 313.308L22.2783 316.153M25.3922 332.748L22.2783 335.593M46.6705 254.987L43.5566 257.832M46.6705 274.427L43.5566 277.272M46.6705 293.867L43.5566 296.712M46.6705 313.308L43.5566 316.153M46.6705 332.748L43.5566 335.593M67.9488 254.987L64.8349 257.832M67.9488 274.427L64.8349 277.272M67.9488 293.867L64.8349 296.712M67.9488 313.308L64.8349 316.153M67.9488 332.748L64.8349 335.593M89.2271 254.987L86.1132 257.832M89.2271 274.427L86.1132 277.272M89.2271 293.867L86.1132 296.712M89.2271 313.308L86.1132 316.153M89.2271 332.748L86.1132 335.593M110.505 254.987L107.391 257.832M110.505 274.427L107.391 277.272M110.505 293.867L107.391 296.712M110.505 313.308L107.391 316.153M110.505 332.748L107.391 335.593" stroke="#34251F" stroke-width="2"/>
<path d="M430.609 1.11328L427.495 3.95822M430.609 20.5537L427.495 23.3987M430.609 39.9941L427.495 42.8391M430.609 59.4346L427.495 62.2795M430.609 78.875L427.495 81.7199M451.887 1.11328L448.773 3.95822M451.887 20.5537L448.773 23.3987M451.887 39.9941L448.773 42.8391M451.887 59.4346L448.773 62.2795M451.887 78.875L448.773 81.7199M473.165 1.11328L470.051 3.95822M473.165 20.5537L470.051 23.3987M473.165 39.9941L470.051 42.8391M473.165 59.4346L470.051 62.2795M473.165 78.875L470.051 81.7199M494.443 1.11328L491.33 3.95822M494.443 20.5537L491.33 23.3987M494.443 39.9941L491.33 42.8391M494.443 59.4346L491.33 62.2795M494.443 78.875L491.33 81.7199M515.722 1.11328L512.608 3.95822M515.722 20.5537L512.608 23.3987M515.722 39.9941L512.608 42.8391M515.722 59.4346L512.608 62.2795M515.722 78.875L512.608 81.7199M537 1.11328L533.886 3.95822M537 20.5537L533.886 23.3987M537 39.9941L533.886 42.8391M537 59.4346L533.886 62.2795M537 78.875L533.886 81.7199" stroke="#34251F" stroke-width="2"/>
</svg>
